<?xml version="1.0" encoding="utf-8"?>
<!-- Generator: Adobe Illustrator 19.0.0, SVG Export Plug-In . SVG Version: 6.00 Build 0)  -->
<svg version="1.1" id="layer" xmlns="http://www.w3.org/2000/svg" xmlns:xlink="http://www.w3.org/1999/xlink" x="0px" y="0px"
	 viewBox="-153 -46 652 652" style="enable-background:new -153 -46 652 652;" xml:space="preserve">
<style type="text/css">
	.st0{fill:#ED1D24;}
	.st1{fill:#FFFFFF;}
</style>
<path class="st0" d="M34.5,219l-18.8,45.6l-59.2-90.2L34.5,219z M19.4,270.8l18.7,45.5v-91.1L19.4,270.8z M-43.5,367.2l77.9-44.5
	L15.7,277L-43.5,367.2z M-132.3,322.6l77.9,44.5l-59.1-90.1L-132.3,322.6z M-136,316.3l18.7-45.5l-18.7-45.5V316.3z M-110.7,270.8
	L-49,365l61.8-94.2L-49,176.5L-110.7,270.8z M-132.3,219l18.7,45.6l59.2-90.2L-132.3,219z"/>
<path class="st1" d="M-80,266.1c0.5,0.5,1.4,1.3,1.8,1.6c-0.1,0.4-0.1,1,0,1.7c-5,5.6-9.6,6.7-11.8,6.7
	C-85.4,272.9-81.4,267.8-80,266.1 M-73.3,285.6c-0.9,0-3.6,1.7-3.2,2.7c0.4,1,1.3,1.3,1,3.3c-0.2,0.9-0.7,2.6-2.3,1.9
	c-2-0.7-1.7-6-1.3-8.3c0.6-3.7,1.1-8.8,0.4-13.7c-2.9,2.8-5.6,4.4-7.7,5.1h-0.1c0.4,3.1,0.4,6.3,0.6,8.1c0.5,2.5,0,12.7,7.5,13.4
	c2.9,0.2,5.6-1.2,6.6-4.8C-70.8,290.4-71.2,285.6-73.3,285.6 M-52.5,283.2c-0.5,1.1-1.3,2.8-1.3,2.8s1.1,1.1,2.8,1.9
	c0,0-0.3-7.3-0.2-8.2C-51.2,279.7-52.2,282.5-52.5,283.2 M-12.7,290.6c-0.6,1.3-0.9,3.7-0.9,4.5c-0.2,2.3,0,4.3,0.5,5.8
	c0.7,2,0.4,3.2,0.4,3.2c1.2-0.7,0.6-2.4,0.4-4.4c-0.1-2,0.3-6.4,1.1-8.5c0.8-2.1,0.4-3.6,0.4-3.6C-11.2,288.9-12.1,289.2-12.7,290.6
	 M-52.5,303.4c-0.6,0.1-0.9,1.2-1.1,2.1c1.1-0.1,2-0.3,2.6-0.5C-51.3,304.4-51.9,303.3-52.5,303.4 M-53.5,299.9
	c-1.3-0.8-4.5-4.2-7.8-5.6c0,0,0.4,4.3,0.1,5.9c-0.4,2.2-0.7,3.6-0.3,4.3c0.4-0.7,1.1-1.7,2-1.7c0.4-0.1,0.8,0.1,1.1,0.5
	c0.3,0.3,0.5,0.7,0.7,1.1c0.3-0.7,1-1.5,1.8-1.6c0.9-0.1,1.5,0.7,1.8,1.5c0.3-0.8,0.8-1.6,1.5-1.7c1.2-0.2,2,1.1,2.4,1.9h0
	c0.5-1-0.3-2.7-0.3-4.6C-50.6,299.9-52.4,300.7-53.5,299.9 M-59.6,303.7c-0.4,0-1,0.8-1.3,1.5c0.3,0.2,0.7,0.3,1.2,0.3
	c0.4,0,0.8,0,1.2,0.1c0-0.7-0.3-1.3-0.6-1.7L-59.6,303.7z M-55.9,303.7c-0.8,0.1-1.2,1.1-1.4,1.9c0.8,0.1,1.8,0.1,2.7,0
	C-54.9,304.8-55.4,303.7-55.9,303.7 M-49,291.6c-0.2,0.3,0.5,1.3,1.5,2.1c0.4-1.1,0.5-1.9,0.2-2.4C-47.9,291.2-48.8,291.2-49,291.6
	 M-50.4,294.3c-0.3,0.5,0.4,1.5,1.1,2.2c0.3-0.4,0.5-0.8,0.9-1.3c0.2-0.3,0.3-0.5,0.5-0.7C-48.9,294.1-50.1,293.8-50.4,294.3
	 M-51.8,296.8l-0.4,0.2c-0.1,0.3,0.2,1,0.6,1.7c0.5-0.1,1.1-0.7,1.8-1.4C-50.5,296.9-51.3,296.7-51.8,296.8 M-16,303.5
	c-0.5,0.1-1,1.1-1.2,2c1-0.1,1.9-0.2,2.6-0.6C-14.9,304.2-15.4,303.4-16,303.5 M-6.4,277.6c0,0,1.1,2.1,1.1,4.6
	c0,2.3-0.7,4.9-0.7,4.9s-2.4-2.2-2-8.9c0,0,0.4-9.6-1.4-13.7c0,0-1.9,8.7-2.6,11.3c-0.7,2.7,0,7.2,0.3,8.6c0.5,2.1-1.1,3.1-2.2,5.7
	c-0.9,2.2-1,4.6-1.1,5.9c-0.1,1.7,0.1,3.9,0.9,6.2c0.3,0.9,0.3,1.8,0,2.1c-0.4-0.7-1.1-1.8-2.2-1.7c-0.8,0.1-1.3,0.9-1.6,1.6
	c-0.3-0.7-0.8-1.5-1.7-1.5c-0.8,0-1.5,0.7-1.9,1.4c-0.2-0.4-0.4-0.8-0.6-1.1c-0.4-0.4-0.7-0.6-1.1-0.6c-0.9,0-1.7,1.2-2.1,1.8
	c-0.3-0.4-0.4-1-0.2-1.8c0.8-3.9,2.3-10.4,0.8-13.7c-1.6-3.3-7.8-9-8.3-15.7c0,0-1.1,0.8,0,4.1c0,0-7.5,0.9-16.7-1.9
	c0,0,0.2-1.4,1.2-3.6c0,0-2.2,1.7-3.4,6.4c-0.4,1.7-2.7,6.2-3.2,7.5c-0.6,1.3,2.9,3.2,4.1,3.7c0.9,0.4,2.1,0.6,3,1.2
	c-0.7,0-1.4,0.2-1.7,0.8l-0.1,0.5c0,0.6,0.4,1,0.7,1.6c-0.7-0.1-1.6-0.1-2,0.6c-0.1,0.2-0.2,0.4-0.2,0.7c0,0.5,0.2,1,0.5,1.5
	c-0.5-0.1-0.9-0.1-1.2,0c-0.5,0.1-0.8,0.3-0.9,0.6c-0.4,0.6,0,1.5,0.4,2.2c-0.7-0.2-1.4-0.9-2.3-1.5c-2.3-2-7.6-5.3-8.5-5.7
	c-1-0.4-3.1-1.7-2.7-6c0.4-4.2,1.6-15.6,2.3-18.5c0,0-0.8,0.6-1.4,2.6l-3.1-4.7c1.2-0.8,2.2-2.4,2.8-3.3c0.7,0.9,2,3,2,3l0.5-0.7
	c0.1-0.1,1.7-1.9,2.2-3.4c0.6-1.6,1-3.5,1.3-5.2c0.2-1,0.4-1.8,0.6-2.3l0.5-1.3c1.2-2.7,3.9-8.1,0.2-11.9c-3.7-3.8-8.6-1.9-8.6-1.9
	s5.4,0.1,7.6,2.7c1.1,1.3,1.4,2.8,1.4,4.2c0,2.4-1.1,4.7-1.8,6.4l-0.6,1.5c-0.2,0.5-0.4,1.4-0.5,2.4c-0.3,1.6-0.7,3.5-1.3,5
	c-0.3,0.8-1,1.8-1.5,2.4c-0.6-0.8-2.3-3.3-2.3-3.3l-0.4,1c-0.4,0.9-1.8,3.3-3.2,3.9c-1.6,1-2.9,1.3-4,2.1c-0.7,0.6-1.4,1.1-1.7,3
	c-0.4,1.6-1.7,2.2-1.7,2.2s0-0.7-0.2-1.6c-0.5-1.4-0.1-2.8-0.1-2.8l-3.2-2.6l-0.4,0.5c0,0.1-2.8,3.9-6.5,7.3l-0.1,0.1
	c-0.1-0.5-0.1-0.8-0.2-1.4c0,0-1.2,1.6-5.1,1.7c4.5-3.2,4.7-4.8,4.7-4.8c-0.4-4.6,0-9.6,0-9.6c-0.2-1.7-0.5-6.6,0-8.5
	c0.4-2,0.9-3.6,2.3-7.7c1.5-4,4.7-3.8,4.7-3.8s2.9-4.3,6.3-4.6c5.4-0.6,9.4,1,12.5,0.5c3.1-0.6,10.9-2.5,15.3-2
	c4.4,0.4,19.4,3.5,24.7,7.9c5.4,4.4,13.6,10.6,14.7,22.3C-6.1,273.8-6.4,277.6-6.4,277.6 M-73.5,250.2c0.3-0.7,1.8-2.2,1.8-2.2
	s-1.5-0.7-2.8,0.5c-1.3,1.3-0.5,3.8-0.5,3.8S-73.8,251-73.5,250.2 M-59.6,242.5c-1.7-3.1-5.2-2-5.2-2c2,0.5,3.9,1.7,4.2,2.9
	c0.6,1.7,0.1,5.1,0.1,5.1S-58,245.6-59.6,242.5 M-19.4,303.6c-0.8,0-1.3,1.1-1.6,2h1.7h1.1C-18.4,304.7-18.8,303.6-19.4,303.6
	 M-23,303.4c-0.4,0-1.1,0.8-1.5,1.4c0.7,0.4,1.6,0.6,2.5,0.7c0-0.8-0.2-1.5-0.6-1.9L-23,303.4z"/>
<path class="st0" d="M464,271.7v56.5l-1.2,0.5c-15,6.5-35.5,10.4-54.5,10.4c-47.3,0-79.1-26.1-79.1-65c0-40.4,34.1-68.7,83.1-68.7
	c15,0,29.6,2.2,43.4,6.4l1.4,0.5v25.9l-2.7-1.2c-13.1-5.6-26.1-8.3-40-8.3c-32.9,0-52.6,16.4-52.6,43.8c0,26.7,18.6,43.3,48.5,43.3
	c8.5,0,16.8-1.3,22.7-3.3v-40.7H464z M317.3,306.8c-12.2,6-23.1,8.6-35.5,8.6c-28.7,0-47.2-17-47.2-43.3c0-26.5,18.9-43.8,48.1-43.8
	c14.2,0,22.1,3.6,33,8.6l2.7,1.2v-25.9l-1.2-0.5c-9.8-3.7-19.2-6.7-35.2-6.7c-46.3,0-79.9,28.5-79.9,67.9
	c0,40.6,29.3,65.8,76.6,65.8c14.8,0,24-2.3,40.8-10.2l1.1-0.5l-0.6-22.5L317.3,306.8z M143.8,259.3c-13-5.6-24.3-10.4-24.3-19.3
	c0-10.5,12.8-11.7,18.3-11.7c11,0,22.6,2.7,34.4,7.9l2.7,1.2v-25.4l-1.2-0.5c-9.6-4.1-23-6.5-36.9-6.5c-34.3,0-49.9,19.1-49.9,36.9
	c0,22.7,20.4,31.6,38.4,39.5c13.7,6,25.5,11.2,25.5,20.9c0,9.7-11.7,13.1-22.7,13.1c-13.4,0-28.4-7.7-36.2-12.3l-2.9-1.7v25l0.9,0.6
	c11,6.6,20.9,11.6,38.9,11.6c32.7,0,54.6-15.4,54.6-38.2C183.4,276.4,161.5,266.9,143.8,259.3 M68.3,174.4h-5.8v192.7h5.8V174.4z"/>
</svg>
